<?xml version="1.0" encoding="utf-8"?>
<!-- Generator: Adobe Illustrator 16.0.0, SVG Export Plug-In . SVG Version: 6.00 Build 0)  -->
<!DOCTYPE svg PUBLIC "-//W3C//DTD SVG 1.0//EN" "http://www.w3.org/TR/2001/REC-SVG-20010904/DTD/svg10.dtd">
<svg version="1.0" id="Layer_1" xmlns="http://www.w3.org/2000/svg" xmlns:xlink="http://www.w3.org/1999/xlink" x="0px" y="0px"
	 width="960px" height="261px" viewBox="120.5 116.5 960 261" enable-background="new 120.5 116.5 960 261" xml:space="preserve">
<g id="line-11" transform="translate(0.000000, 200.000000)">
	<path id="line-11-dash-3" opacity="0.5" fill="#CFD4D7" enable-background="new    " d="M300.567,142h50c2.761,0,5,2.238,5,5l0,0
		c0,2.762-2.239,5-5,5h-50c-2.761,0-5-2.238-5-5l0,0C295.567,144.238,297.806,142,300.567,142z"/>
	<path id="line-11-dash-2" opacity="0.5" fill="#CFD4D7" enable-background="new    " d="M220.567,142h60c2.761,0,5,2.238,5,5l0,0
		c0,2.762-2.239,5-5,5h-60c-2.761,0-5-2.238-5-5l0,0C215.567,144.238,217.806,142,220.567,142z"/>
	<path id="line-11-dash-1" fill="#EA5E5E" d="M150.567,142h50c2.761,0,5,2.238,5,5l0,0c0,2.762-2.239,5-5,5h-50
		c-2.761,0-5-2.238-5-5l0,0C145.567,144.238,147.806,142,150.567,142z"/>
</g>
<g id="line-10" transform="translate(0.000000, 180.000000)">
	<path id="line-10-dash-5" opacity="0.5" fill="#CFD4D7" enable-background="new    " d="M310.567,142h40c2.761,0,5,2.238,5,5l0,0
		c0,2.762-2.239,5-5,5h-40c-2.761,0-5-2.238-5-5l0,0C305.567,144.238,307.806,142,310.567,142z"/>
	<path id="line-10-dash-4" opacity="0.5" fill="#CFD4D7" enable-background="new    " d="M280.567,142h10c2.761,0,5,2.238,5,5l0,0
		c0,2.762-2.239,5-5,5h-10c-2.761,0-5-2.238-5-5l0,0C275.567,144.238,277.806,142,280.567,142z"/>
	<path id="line-10-dash-3" opacity="0.5" fill="#CFD4D7" enable-background="new    " d="M220.567,142h40c2.761,0,5,2.238,5,5l0,0
		c0,2.762-2.239,5-5,5h-40c-2.761,0-5-2.238-5-5l0,0C215.567,144.238,217.806,142,220.567,142z"/>
	<path id="line-10-dash-2" fill="#F7B93E" d="M190.567,142h10c2.761,0,5,2.238,5,5l0,0c0,2.762-2.239,5-5,5h-10
		c-2.761,0-5-2.238-5-5l0,0C185.567,144.238,187.806,142,190.567,142z"/>
	<path id="line-10-dash-1" fill="#56B3B4" d="M150.567,142h20c2.761,0,5,2.238,5,5l0,0c0,2.762-2.239,5-5,5h-20
		c-2.761,0-5-2.238-5-5l0,0C145.567,144.238,147.806,142,150.567,142z"/>
</g>
<g id="line-9" transform="translate(0.000000, 160.000000)">
	<path id="line-9-dash-3" opacity="0.5" fill="#CFD4D7" enable-background="new    " d="M260.567,142h90c2.761,0,5,2.238,5,5l0,0
		c0,2.762-2.239,5-5,5h-90c-2.761,0-5-2.238-5-5l0,0C255.567,144.238,257.806,142,260.567,142z"/>
	<path id="line-9-dash-2" opacity="0.5" fill="#CFD4D7" enable-background="new    " d="M220.567,142h20c2.761,0,5,2.238,5,5l0,0
		c0,2.762-2.239,5-5,5h-20c-2.761,0-5-2.238-5-5l0,0C215.567,144.238,217.806,142,220.567,142z"/>
	<path id="line-9-dash-1" fill="#BF85BF" d="M150.567,142h50c2.761,0,5,2.238,5,5l0,0c0,2.762-2.239,5-5,5h-50c-2.761,0-5-2.238-5-5
		l0,0C145.567,144.238,147.806,142,150.567,142z"/>
</g>
<g id="line-8" transform="translate(0.000000, 140.000000)">
	<path id="line-8-dash-4" opacity="0.5" fill="#CFD4D7" enable-background="new    " d="M330.567,142h20c2.761,0,5,2.238,5,5l0,0
		c0,2.762-2.239,5-5,5h-20c-2.761,0-5-2.238-5-5l0,0C325.567,144.238,327.806,142,330.567,142z"/>
	<path id="line-8-dash-3" opacity="0.5" fill="#CFD4D7" enable-background="new    " d="M290.567,142h20c2.761,0,5,2.238,5,5l0,0
		c0,2.762-2.239,5-5,5h-20c-2.761,0-5-2.238-5-5l0,0C285.567,144.238,287.806,142,290.567,142z"/>
	<path id="line-8-dash-2" fill="#F7B93E" d="M180.567,142h90c2.761,0,5,2.238,5,5l0,0c0,2.762-2.239,5-5,5h-90c-2.761,0-5-2.238-5-5
		l0,0C175.567,144.238,177.806,142,180.567,142z"/>
	<path id="line-8-dash-1" fill="#BF85BF" d="M150.567,142h10c2.761,0,5,2.238,5,5l0,0c0,2.762-2.239,5-5,5h-10c-2.761,0-5-2.238-5-5
		l0,0C145.567,144.238,147.806,142,150.567,142z"/>
</g>
<g id="line-7" transform="translate(0.000000, 120.000000)">
	<path id="line-7-dash-4" opacity="0.5" fill="#CFD4D7" enable-background="new    " d="M320.567,142h30c2.761,0,5,2.238,5,5l0,0
		c0,2.762-2.239,5-5,5h-30c-2.761,0-5-2.238-5-5l0,0C315.567,144.238,317.806,142,320.567,142z"/>
	<path id="line-7-dash-3" fill="#BF85BF" d="M270.567,142h30c2.761,0,5,2.238,5,5l0,0c0,2.762-2.239,5-5,5h-30c-2.761,0-5-2.238-5-5
		l0,0C265.567,144.238,267.806,142,270.567,142z"/>
	<path id="line-7-dash-2" fill="#EA5E5E" d="M210.567,142h40c2.761,0,5,2.238,5,5l0,0c0,2.762-2.239,5-5,5h-40c-2.761,0-5-2.238-5-5
		l0,0C205.567,144.238,207.806,142,210.567,142z"/>
	<path id="line-7-dash-1" fill="#56B3B4" d="M150.567,142h40c2.761,0,5,2.238,5,5l0,0c0,2.762-2.239,5-5,5h-40c-2.761,0-5-2.238-5-5
		l0,0C145.567,144.238,147.806,142,150.567,142z"/>
</g>
<g id="line-6" transform="translate(0.000000, 100.000000)">
	<path id="line-6-dash-4" opacity="0.5" fill="#CFD4D7" enable-background="new    " d="M330.567,142h20c2.761,0,5,2.239,5,5l0,0
		c0,2.762-2.239,5-5,5h-20c-2.761,0-5-2.238-5-5l0,0C325.567,144.239,327.806,142,330.567,142z"/>
	<path id="line-6-dash-3" fill="#56B3B4" d="M230.567,142h80c2.761,0,5,2.239,5,5l0,0c0,2.762-2.239,5-5,5h-80c-2.761,0-5-2.238-5-5
		l0,0C225.567,144.239,227.806,142,230.567,142z"/>
	<path id="line-6-dash-2" fill="#F7B93E" d="M180.567,142h30c2.761,0,5,2.239,5,5l0,0c0,2.762-2.239,5-5,5h-30c-2.761,0-5-2.238-5-5
		l0,0C175.567,144.239,177.806,142,180.567,142z"/>
	<path id="line-6-dash-1" fill="#EA5E5E" d="M150.567,142h10c2.761,0,5,2.239,5,5l0,0c0,2.762-2.239,5-5,5h-10c-2.761,0-5-2.238-5-5
		l0,0C145.567,144.239,147.806,142,150.567,142z"/>
</g>
<g id="line-5" transform="translate(0.000000, 80.000000)">
	<path id="line-5-dash-4" opacity="0.5" fill="#CFD4D7" enable-background="new    " d="M340.567,142h10c2.761,0,5,2.239,5,5l0,0
		c0,2.761-2.239,5-5,5h-10c-2.761,0-5-2.239-5-5l0,0C335.567,144.239,337.806,142,340.567,142z"/>
	<path id="line-5-dash-3" fill="#F7B93E" d="M270.567,142h50c2.761,0,5,2.239,5,5l0,0c0,2.761-2.239,5-5,5h-50c-2.761,0-5-2.239-5-5
		l0,0C265.567,144.239,267.806,142,270.567,142z"/>
	<path id="line-5-dash-2" opacity="0.5" fill="#CFD4D7" enable-background="new    " d="M220.567,142h30c2.761,0,5,2.239,5,5l0,0
		c0,2.761-2.239,5-5,5h-30c-2.761,0-5-2.239-5-5l0,0C215.567,144.239,217.806,142,220.567,142z"/>
	<path id="line-5-dash-1" fill="#BF85BF" d="M150.567,142h50c2.761,0,5,2.239,5,5l0,0c0,2.761-2.239,5-5,5h-50c-2.761,0-5-2.239-5-5
		l0,0C145.567,144.239,147.806,142,150.567,142z"/>
</g>
<g id="line-4" transform="translate(0.000000, 60.000000)">
	<path id="line-4-dash-5" opacity="0.5" fill="#CFD4D7" enable-background="new    " d="M340.567,142h10c2.761,0,5,2.239,5,5l0,0
		c0,2.761-2.239,5-5,5h-10c-2.761,0-5-2.239-5-5l0,0C335.567,144.239,337.806,142,340.567,142z"/>
	<path id="line-4-dash-4" fill="#EA5E5E" d="M270.567,142h50c2.761,0,5,2.239,5,5l0,0c0,2.761-2.239,5-5,5h-50c-2.761,0-5-2.239-5-5
		l0,0C265.567,144.239,267.806,142,270.567,142z"/>
	<path id="line-4-dash-3" opacity="0.5" fill="#CFD4D7" enable-background="new    " d="M220.567,142h30c2.761,0,5,2.239,5,5l0,0
		c0,2.761-2.239,5-5,5h-30c-2.761,0-5-2.239-5-5l0,0C215.567,144.239,217.806,142,220.567,142z"/>
	<path id="line-4-dash-2" fill="#56B3B4" d="M190.567,142h10c2.761,0,5,2.239,5,5l0,0c0,2.761-2.239,5-5,5h-10c-2.761,0-5-2.239-5-5
		l0,0C185.567,144.239,187.806,142,190.567,142z"/>
	<path id="line-4-dash-1" fill="#F7B93E" d="M150.567,142h20c2.761,0,5,2.239,5,5l0,0c0,2.761-2.239,5-5,5h-20c-2.761,0-5-2.239-5-5
		l0,0C145.567,144.239,147.806,142,150.567,142z"/>
</g>
<g id="line-3" transform="translate(0.000000, 40.000000)">
	<path id="line-3-dash-4" opacity="0.5" fill="#CFD4D7" enable-background="new    " d="M330.567,142h20c2.761,0,5,2.239,5,5l0,0
		c0,2.761-2.239,5-5,5h-20c-2.761,0-5-2.239-5-5l0,0C325.567,144.239,327.806,142,330.567,142z"/>
	<path id="line-3-dash-3" fill="#56B3B4" d="M300.567,142h10c2.761,0,5,2.239,5,5l0,0c0,2.761-2.239,5-5,5h-10c-2.761,0-5-2.239-5-5
		l0,0C295.567,144.239,297.806,142,300.567,142z"/>
	<path id="line-3-dash-2" fill="#BF85BF" d="M240.567,142h40c2.761,0,5,2.239,5,5l0,0c0,2.761-2.239,5-5,5h-40c-2.761,0-5-2.239-5-5
		l0,0C235.567,144.239,237.806,142,240.567,142z"/>
	<path id="line-3-dash-1" fill="#56B3B4" d="M150.567,142h70c2.761,0,5,2.239,5,5l0,0c0,2.761-2.239,5-5,5h-70c-2.761,0-5-2.239-5-5
		l0,0C145.567,144.239,147.806,142,150.567,142z"/>
</g>
<g id="line-2" transform="translate(0.000000, 20.000000)">
	<path id="line-2-dash-3" opacity="0.5" fill="#CFD4D7" enable-background="new    " d="M320.567,142h30c2.761,0,5,2.239,5,5l0,0
		c0,2.761-2.239,5-5,5h-30c-2.761,0-5-2.239-5-5l0,0C315.567,144.239,317.806,142,320.567,142z"/>
	<path id="line-2-dash-2" fill="#F7B93E" d="M200.567,142h100c2.761,0,5,2.239,5,5l0,0c0,2.761-2.239,5-5,5h-100
		c-2.761,0-5-2.239-5-5l0,0C195.567,144.239,197.806,142,200.567,142z"/>
	<path id="line-2-dash-1" fill="#EA5E5E" d="M150.567,142h30c2.761,0,5,2.239,5,5l0,0c0,2.761-2.239,5-5,5h-30c-2.761,0-5-2.239-5-5
		l0,0C145.567,144.239,147.806,142,150.567,142z"/>
</g>
<g id="line-1">
	<path id="line-1-dash-2" opacity="0.5" fill="#CFD4D7" enable-background="new    " d="M290.567,142h60c2.761,0,5,2.239,5,5l0,0
		c0,2.761-2.239,5-5,5h-60c-2.761,0-5-2.239-5-5l0,0C285.567,144.239,287.806,142,290.567,142z"/>
	<path id="line-1-dash-1" fill="#56B3B4" d="M150.567,142h120c2.761,0,5,2.239,5,5l0,0c0,2.761-2.239,5-5,5h-120
		c-2.761,0-5-2.239-5-5l0,0C145.567,144.239,147.806,142,150.567,142z"/>
</g>
<g>
	<g>
		<path fill="#334650" d="M519.763,247.359c0,3.625-0.512,6.756-1.534,9.397s-2.446,4.836-4.271,6.582
			c-1.825,1.748-3.98,3.043-6.466,3.883c-2.485,0.842-5.19,1.264-8.116,1.264c-0.983,0-1.967-0.066-2.951-0.195
			c-0.983-0.129-1.877-0.297-2.679-0.504v15.416h-9.476v-54.871h8.193l0.233,5.825c0.802-1.01,1.637-1.928,2.505-2.757
			c0.867-0.828,1.806-1.534,2.815-2.116s2.097-1.029,3.262-1.34s2.472-0.466,3.922-0.466c2.33,0,4.401,0.466,6.214,1.398
			c1.812,0.932,3.332,2.259,4.562,3.98c1.229,1.722,2.168,3.806,2.815,6.252C519.438,241.553,519.763,244.304,519.763,247.359z
			 M509.821,247.748c0-2.176-0.155-4.026-0.466-5.554c-0.311-1.527-0.757-2.783-1.34-3.767c-0.582-0.983-1.295-1.702-2.136-2.155
			c-0.842-0.453-1.806-0.68-2.893-0.68c-1.605,0-3.14,0.647-4.603,1.942s-3.009,3.055-4.64,5.281v17.241
			c0.75,0.285,1.676,0.518,2.776,0.699c1.1,0.182,2.22,0.271,3.358,0.271c1.502,0,2.867-0.311,4.098-0.932
			c1.229-0.621,2.277-1.502,3.146-2.641c0.866-1.139,1.533-2.529,1.999-4.174C509.589,251.637,509.821,249.793,509.821,247.748z"/>
		<path fill="#334650" d="M552.731,267.785l-0.232-5.166c-0.829,0.881-1.696,1.689-2.603,2.428s-1.902,1.379-2.99,1.922
			c-1.087,0.545-2.271,0.965-3.553,1.262c-1.281,0.299-2.687,0.447-4.214,0.447c-2.019,0-3.792-0.297-5.319-0.893
			c-1.528-0.596-2.81-1.424-3.845-2.486c-1.036-1.061-1.819-2.342-2.35-3.844s-0.796-3.158-0.796-4.971
			c0-1.863,0.395-3.586,1.185-5.164c0.789-1.58,1.993-2.939,3.611-4.078c1.617-1.139,3.637-2.032,6.058-2.68
			c2.421-0.646,5.262-0.971,8.524-0.971h5.164v-2.369c0-1.01-0.143-1.922-0.427-2.738c-0.285-0.815-0.744-1.508-1.379-2.078
			c-0.635-0.569-1.456-1.009-2.466-1.32c-1.01-0.311-2.252-0.466-3.728-0.466c-2.33,0-4.628,0.266-6.893,0.796
			c-2.266,0.531-4.46,1.275-6.582,2.233v-7.572c1.889-0.75,4.07-1.372,6.543-1.864c2.472-0.492,5.041-0.738,7.708-0.738
			c2.926,0,5.437,0.278,7.533,0.834c2.098,0.557,3.825,1.392,5.185,2.505c1.359,1.113,2.362,2.505,3.01,4.175
			c0.646,1.669,0.971,3.618,0.971,5.844v26.95H552.731z M551.372,250.35h-5.786c-1.605,0-2.964,0.154-4.077,0.465
			s-2.02,0.738-2.718,1.281c-0.699,0.545-1.211,1.172-1.534,1.885c-0.324,0.711-0.485,1.469-0.485,2.271
			c0,1.605,0.518,2.828,1.553,3.67c1.035,0.84,2.447,1.262,4.233,1.262c1.32,0,2.692-0.479,4.116-1.438
			c1.423-0.957,2.99-2.33,4.698-4.115V250.35z"/>
		<path fill="#334650" d="M603.642,266.27c-1.864,0.752-3.793,1.309-5.786,1.67c-1.994,0.363-4.078,0.545-6.252,0.545
			c-3.133,0-5.941-0.428-8.427-1.281c-2.485-0.855-4.596-2.123-6.33-3.807c-1.734-1.682-3.062-3.768-3.98-6.252
			s-1.379-5.359-1.379-8.621c0-3.158,0.499-6.019,1.495-8.582c0.997-2.563,2.401-4.75,4.214-6.563
			c1.812-1.812,3.993-3.21,6.543-4.194c2.55-0.983,5.392-1.476,8.524-1.476c2.562,0,4.718,0.136,6.465,0.408
			c1.748,0.272,3.321,0.615,4.719,1.029v9.204c-1.605-0.802-3.347-1.423-5.224-1.864c-1.877-0.44-3.656-0.66-5.339-0.66
			c-1.761,0-3.34,0.298-4.738,0.894c-1.397,0.596-2.576,1.424-3.533,2.485c-0.958,1.062-1.689,2.35-2.194,3.864
			c-0.505,1.514-0.757,3.178-0.757,4.991c0,1.889,0.271,3.586,0.815,5.086c0.544,1.502,1.313,2.777,2.311,3.826
			c0.996,1.047,2.194,1.85,3.592,2.406c1.398,0.557,2.951,0.836,4.66,0.836c0.828,0,1.702-0.059,2.621-0.176
			c0.919-0.115,1.838-0.283,2.757-0.504s1.825-0.473,2.719-0.758s1.729-0.596,2.505-0.932V266.27z"/>
		<path fill="#334650" d="M639.872,267.785l-14.562-19.727v19.727h-9.476v-54.871h9.476v32.115l13.785-16.698h11.844L634.94,246.31
			l17.319,21.475H639.872z"/>
		<path fill="#334650" d="M683.908,267.785l-0.232-5.166c-0.829,0.881-1.696,1.689-2.602,2.428c-0.907,0.738-1.903,1.379-2.99,1.922
			c-1.088,0.545-2.272,0.965-3.554,1.262c-1.281,0.299-2.686,0.447-4.213,0.447c-2.02,0-3.793-0.297-5.32-0.893
			c-1.528-0.596-2.81-1.424-3.845-2.486c-1.035-1.061-1.818-2.342-2.349-3.844c-0.531-1.502-0.797-3.158-0.797-4.971
			c0-1.863,0.395-3.586,1.185-5.164c0.79-1.58,1.993-2.939,3.611-4.078s3.637-2.032,6.059-2.68c2.42-0.646,5.262-0.971,8.523-0.971
			h5.165v-2.369c0-1.01-0.143-1.922-0.428-2.738s-0.744-1.508-1.378-2.078c-0.635-0.569-1.457-1.009-2.467-1.32
			c-1.009-0.311-2.252-0.466-3.728-0.466c-2.33,0-4.628,0.266-6.893,0.796c-2.266,0.531-4.46,1.275-6.582,2.233v-7.572
			c1.89-0.75,4.07-1.372,6.543-1.864c2.472-0.492,5.042-0.738,7.708-0.738c2.926,0,5.437,0.278,7.534,0.834
			c2.097,0.557,3.825,1.392,5.184,2.505c1.359,1.113,2.362,2.505,3.01,4.175c0.646,1.669,0.971,3.618,0.971,5.844v26.95H683.908z
			 M682.55,250.35h-5.786c-1.605,0-2.965,0.154-4.078,0.465s-2.019,0.738-2.718,1.281c-0.699,0.545-1.211,1.172-1.534,1.885
			c-0.324,0.711-0.485,1.469-0.485,2.271c0,1.605,0.518,2.828,1.554,3.67c1.035,0.84,2.446,1.262,4.232,1.262
			c1.32,0,2.692-0.479,4.116-1.438c1.424-0.957,2.99-2.33,4.699-4.115V250.35z"/>
		<path fill="#334650" d="M732.488,235.243c0.725,0.907,1.236,1.858,1.534,2.854c0.297,0.997,0.446,2.013,0.446,3.048
			c0,2.201-0.383,4.142-1.146,5.825c-0.764,1.684-1.839,3.094-3.224,4.233s-3.042,2-4.97,2.582c-1.93,0.582-4.059,0.875-6.389,0.875
			c-1.372,0-2.641-0.137-3.806-0.408s-2.045-0.59-2.641-0.951c-0.44,0.439-0.815,0.926-1.126,1.455
			c-0.311,0.531-0.466,1.133-0.466,1.807c0,0.414,0.104,0.828,0.311,1.242s0.511,0.783,0.913,1.107
			c0.4,0.324,0.879,0.588,1.437,0.795c0.557,0.207,1.185,0.324,1.883,0.35l9.359,0.35c2.097,0.053,3.993,0.318,5.688,0.797
			s3.151,1.158,4.369,2.039c1.217,0.879,2.155,1.947,2.815,3.203s0.99,2.686,0.99,4.291c0,1.838-0.415,3.572-1.243,5.203
			c-0.829,1.631-2.077,3.049-3.747,4.252c-1.67,1.205-3.747,2.156-6.232,2.855c-2.485,0.697-5.372,1.047-8.66,1.047
			c-3.185,0-5.922-0.252-8.213-0.756c-2.291-0.506-4.169-1.211-5.631-2.117c-1.463-0.906-2.543-1.986-3.242-3.242
			s-1.049-2.635-1.049-4.137c0-0.906,0.116-1.746,0.35-2.523s0.582-1.521,1.049-2.232c0.466-0.713,1.048-1.404,1.747-2.078
			c0.699-0.672,1.527-1.346,2.485-2.02c-1.269-0.725-2.232-1.656-2.893-2.795s-0.99-2.355-0.99-3.65
			c0-0.881,0.116-1.703,0.349-2.467c0.233-0.764,0.537-1.494,0.913-2.193c0.375-0.699,0.809-1.373,1.301-2.02
			c0.491-0.646,1.01-1.281,1.554-1.902c-0.958-0.957-1.755-2.117-2.389-3.476c-0.635-1.359-0.951-3.061-0.951-5.106
			c0-2.2,0.395-4.161,1.185-5.883c0.789-1.721,1.883-3.171,3.281-4.349c1.397-1.178,3.061-2.071,4.99-2.679
			c1.928-0.608,4.031-0.913,6.31-0.913c1.165,0,2.285,0.058,3.359,0.175c1.074,0.116,2.052,0.317,2.932,0.602h13.669v6.912H732.488z
			 M710.159,273.027c0,1.527,0.771,2.652,2.311,3.379c1.54,0.725,3.709,1.086,6.505,1.086c1.786,0,3.294-0.168,4.523-0.504
			c1.229-0.338,2.233-0.777,3.01-1.32s1.333-1.178,1.67-1.902c0.336-0.727,0.505-1.477,0.505-2.254c0-0.697-0.162-1.287-0.485-1.766
			c-0.324-0.48-0.776-0.881-1.359-1.205c-0.582-0.322-1.269-0.568-2.058-0.736c-0.79-0.168-1.664-0.279-2.621-0.33l-8.35-0.156
			c-0.751,0.518-1.365,1.01-1.845,1.477c-0.479,0.465-0.854,0.924-1.126,1.379c-0.271,0.451-0.453,0.912-0.544,1.377
			C710.204,272.018,710.159,272.51,710.159,273.027z M711.752,241.378c0,2.097,0.614,3.761,1.844,4.99
			c1.229,1.229,2.945,1.844,5.146,1.844c1.165,0,2.181-0.193,3.049-0.582c0.867-0.389,1.585-0.906,2.155-1.554
			c0.569-0.647,0.996-1.398,1.281-2.252c0.284-0.854,0.427-1.747,0.427-2.679c0-2.2-0.615-3.916-1.844-5.146
			c-1.23-1.229-2.945-1.844-5.146-1.844c-1.165,0-2.182,0.194-3.049,0.583c-0.867,0.388-1.586,0.913-2.155,1.573
			s-0.997,1.431-1.281,2.311C711.894,239.502,711.752,240.421,711.752,241.378z"/>
		<path fill="#334650" d="M780.99,245.029c0,0.647-0.02,1.489-0.059,2.524c-0.038,1.035-0.097,2.006-0.175,2.912h-25.939
			c0,1.734,0.265,3.262,0.796,4.582c0.53,1.32,1.281,2.428,2.252,3.32c0.971,0.895,2.136,1.574,3.495,2.039
			c1.359,0.467,2.867,0.699,4.524,0.699c1.915,0,3.967-0.148,6.154-0.447c2.188-0.297,4.459-0.781,6.815-1.455v7.533
			c-1.01,0.285-2.11,0.543-3.301,0.777c-1.191,0.232-2.407,0.439-3.65,0.621c-1.242,0.18-2.499,0.316-3.767,0.406
			c-1.269,0.092-2.499,0.137-3.689,0.137c-3.003,0-5.695-0.428-8.077-1.281s-4.401-2.117-6.058-3.787
			c-1.657-1.67-2.926-3.732-3.806-6.193c-0.881-2.459-1.32-5.307-1.32-8.543c0-3.209,0.439-6.129,1.32-8.757
			c0.88-2.627,2.122-4.879,3.728-6.757c1.605-1.876,3.554-3.326,5.845-4.349c2.291-1.022,4.848-1.534,7.669-1.534
			c2.797,0,5.269,0.434,7.418,1.301c2.148,0.868,3.947,2.078,5.397,3.631c1.449,1.553,2.55,3.404,3.301,5.553
			C780.614,240.11,780.99,242.466,780.99,245.029z M771.359,243.669c0.025-1.553-0.168-2.906-0.582-4.058s-0.978-2.104-1.689-2.854
			c-0.712-0.75-1.54-1.307-2.485-1.67c-0.945-0.362-1.961-0.543-3.048-0.543c-2.383,0-4.337,0.796-5.864,2.388
			s-2.434,3.838-2.718,6.737H771.359z"/>
		<path fill="#334650" d="M806.581,253.455c1.087,0,2.097,0.201,3.029,0.602c0.932,0.402,1.74,0.945,2.427,1.631
			c0.686,0.688,1.223,1.496,1.611,2.428s0.583,1.93,0.583,2.99c0,1.035-0.194,2.014-0.583,2.932
			c-0.389,0.92-0.926,1.723-1.611,2.408c-0.687,0.686-1.495,1.23-2.427,1.631c-0.933,0.4-1.942,0.602-3.029,0.602
			c-1.036,0-2.007-0.201-2.912-0.602c-0.907-0.4-1.696-0.945-2.369-1.631c-0.674-0.686-1.204-1.488-1.592-2.408
			c-0.389-0.918-0.583-1.896-0.583-2.932c0-1.061,0.194-2.059,0.583-2.99c0.388-0.932,0.918-1.74,1.592-2.428
			c0.673-0.686,1.462-1.229,2.369-1.631C804.574,253.656,805.545,253.455,806.581,253.455z"/>
		<path fill="#334650" d="M862.966,266.658c0,2.951-0.434,5.521-1.301,7.709s-2.11,4-3.728,5.436
			c-1.618,1.438-3.561,2.512-5.825,3.225c-2.266,0.711-4.796,1.066-7.592,1.066c-2.278,0-4.401-0.193-6.368-0.582
			c-1.968-0.389-3.586-0.854-4.854-1.398v-8.697c0.725,0.389,1.547,0.77,2.466,1.145s1.877,0.713,2.874,1.01
			c0.996,0.297,2.013,0.531,3.048,0.699s2.059,0.252,3.068,0.252c2.873,0,5.021-0.828,6.445-2.484
			c1.424-1.658,2.137-4.092,2.137-7.301v-31.027h-18.757v-7.378h28.387V266.658z M863.742,217.535c0,0.854-0.155,1.657-0.466,2.408
			c-0.311,0.751-0.744,1.405-1.301,1.961c-0.557,0.557-1.217,0.997-1.98,1.32c-0.764,0.324-1.586,0.485-2.466,0.485
			s-1.695-0.161-2.446-0.485c-0.751-0.323-1.404-0.763-1.961-1.32c-0.558-0.556-0.99-1.21-1.301-1.961
			c-0.311-0.75-0.466-1.553-0.466-2.408s0.155-1.656,0.466-2.408c0.311-0.75,0.743-1.411,1.301-1.98
			c0.557-0.569,1.21-1.016,1.961-1.339s1.566-0.486,2.446-0.486s1.702,0.162,2.466,0.486s1.424,0.771,1.98,1.339
			c0.557,0.57,0.99,1.23,1.301,1.98C863.587,215.879,863.742,216.681,863.742,217.535z"/>
		<path fill="#334650" d="M910.342,256.174c0,2.252-0.499,4.174-1.495,5.766c-0.997,1.594-2.317,2.889-3.961,3.885
			c-1.645,0.996-3.508,1.721-5.592,2.174s-4.213,0.68-6.388,0.68c-2.9,0-5.515-0.137-7.845-0.408s-4.53-0.666-6.602-1.184v-8.543
			c2.434,1.01,4.86,1.74,7.281,2.193s4.705,0.68,6.854,0.68c2.485,0,4.342-0.395,5.572-1.184c1.229-0.791,1.845-1.818,1.845-3.088
			c0-0.596-0.13-1.139-0.389-1.631s-0.744-0.965-1.456-1.418c-0.713-0.453-1.716-0.918-3.01-1.398
			c-1.295-0.479-2.99-1.016-5.087-1.611c-1.941-0.543-3.645-1.158-5.106-1.844c-1.463-0.686-2.674-1.494-3.631-2.427
			c-0.958-0.932-1.677-2.013-2.155-3.243c-0.479-1.229-0.719-2.672-0.719-4.33c0-1.605,0.362-3.119,1.088-4.543
			c0.725-1.423,1.806-2.673,3.242-3.748c1.437-1.074,3.229-1.922,5.378-2.543c2.149-0.621,4.66-0.932,7.534-0.932
			c2.485,0,4.686,0.13,6.602,0.388c1.915,0.259,3.611,0.543,5.087,0.854v7.728c-2.252-0.725-4.369-1.236-6.35-1.534
			c-1.98-0.297-3.941-0.446-5.883-0.446s-3.502,0.35-4.68,1.048c-1.178,0.699-1.767,1.67-1.767,2.913
			c0,0.596,0.116,1.126,0.35,1.592c0.233,0.466,0.692,0.919,1.379,1.359c0.686,0.44,1.644,0.9,2.873,1.378
			c1.229,0.479,2.854,1.004,4.874,1.573c2.277,0.647,4.193,1.34,5.747,2.078c1.553,0.738,2.802,1.573,3.747,2.505
			s1.624,1.994,2.039,3.184C910.135,253.287,910.342,254.646,910.342,256.174z"/>
		<path fill="#334650" d="M957.058,247.748c0,3.105-0.44,5.947-1.32,8.523c-0.881,2.576-2.149,4.783-3.806,6.621
			c-1.657,1.838-3.689,3.262-6.097,4.271s-5.152,1.514-8.232,1.514c-2.926,0-5.54-0.428-7.845-1.281
			c-2.304-0.854-4.259-2.129-5.863-3.824c-1.605-1.695-2.835-3.818-3.689-6.369s-1.281-5.521-1.281-8.912
			c0-3.132,0.446-5.98,1.34-8.543s2.175-4.75,3.845-6.563c1.67-1.812,3.708-3.216,6.116-4.213c2.407-0.996,5.125-1.495,8.154-1.495
			c2.951,0,5.579,0.434,7.883,1.301c2.305,0.868,4.259,2.155,5.864,3.864c1.604,1.708,2.828,3.825,3.67,6.349
			C956.637,241.514,957.058,244.434,957.058,247.748z M947.194,247.98c0-4.091-0.771-7.165-2.311-9.223
			c-1.541-2.058-3.812-3.087-6.815-3.087c-1.657,0-3.067,0.324-4.232,0.971s-2.123,1.534-2.874,2.66
			c-0.751,1.126-1.301,2.44-1.65,3.941c-0.35,1.502-0.524,3.107-0.524,4.816c0,4.115,0.828,7.217,2.485,9.299
			c1.656,2.084,3.922,3.127,6.796,3.127c1.579,0,2.951-0.316,4.116-0.951s2.109-1.516,2.835-2.641
			c0.725-1.127,1.268-2.453,1.631-3.98C947.013,251.385,947.194,249.74,947.194,247.98z"/>
		<path fill="#334650" d="M988.784,267.785v-25.708c0-4.323-1.605-6.485-4.815-6.485c-1.605,0-3.14,0.647-4.602,1.942
			c-1.463,1.294-3.01,3.055-4.641,5.281v24.97h-9.476v-39.455h8.194l0.232,5.825c0.803-1.01,1.638-1.928,2.505-2.757
			c0.867-0.828,1.806-1.534,2.815-2.116s2.097-1.029,3.262-1.34s2.472-0.466,3.922-0.466c2.02,0,3.78,0.33,5.281,0.99
			c1.502,0.66,2.758,1.592,3.768,2.796c1.009,1.204,1.767,2.654,2.271,4.349c0.505,1.696,0.757,3.592,0.757,5.689v26.484H988.784z"
			/>
	</g>
	<g>
		<path fill="#334650" d="M477.974,308.6h-4.854c-8.438,0-14.713-1.979-18.822-5.936c-4.11-3.958-6.165-9.959-6.165-18.003v-22.561
			c0-2.142-0.241-4.055-0.721-5.738c-0.482-1.683-1.323-3.104-2.525-4.264c-1.203-1.157-2.799-2.043-4.788-2.656
			c-1.99-0.611-4.493-0.918-7.509-0.918h-2.82v-9.116h2.82c3.191,0,5.792-0.262,7.804-0.787c2.011-0.525,3.584-1.322,4.722-2.394
			c1.136-1.071,1.923-2.437,2.361-4.099c0.437-1.661,0.656-3.629,0.656-5.903v-15.543c0-3.673,0.437-6.985,1.312-9.936
			c0.874-2.951,2.306-5.465,4.295-7.542c1.989-2.076,4.568-3.673,7.739-4.788c3.17-1.115,7.05-1.672,11.641-1.672h4.854v9.182h-3.87
			c-10.144,0-15.215,4.919-15.215,14.756v15.281c0,10.668-4.613,16.681-13.838,18.035c9.313,0.919,13.97,6.909,13.97,17.971v22.429
			c0,10.012,5.027,15.02,15.084,15.02h3.87V308.6z"/>
	</g>
	<g>
		<path fill="#334650" d="M1007.163,186.745h4.854c8.438,0,14.713,1.979,18.822,5.935c4.109,3.958,6.165,9.958,6.165,18.003v15.15
			c0,2.143,0.24,4.056,0.722,5.738c0.48,1.684,1.322,3.105,2.525,4.263c1.201,1.159,2.809,2.044,4.82,2.656
			c2.01,0.613,4.525,0.918,7.541,0.918h2.82v9.116h-2.82c-3.191,0-5.803,0.263-7.836,0.787s-3.619,1.323-4.756,2.394
			c-1.137,1.072-1.924,2.438-2.36,4.1c-0.438,1.662-0.656,3.63-0.656,5.902v22.954c0,3.673-0.438,6.984-1.312,9.936
			c-0.875,2.952-2.295,5.466-4.263,7.543c-1.968,2.076-4.548,3.672-7.739,4.787s-7.082,1.673-11.674,1.673h-4.854v-9.182h3.936
			c10.1,0,15.15-4.919,15.15-14.757V261.97c0-10.668,4.611-16.658,13.838-17.971c-9.312-1.005-13.97-7.017-13.97-18.035v-15.019
			c0-10.012-5.007-15.019-15.019-15.019h-3.936V186.745z"/>
	</g>
</g>
</svg>
